<svg width="21" height="21" viewBox="0 0 21 21" fill="none" xmlns="http://www.w3.org/2000/svg">
<path fill-rule="evenodd" clip-rule="evenodd" d="M10.4998 2.16675C5.89747 2.16675 2.1665 5.89772 2.1665 10.5001C2.1665 15.1024 5.89747 18.8334 10.4998 18.8334C15.1022 18.8334 18.8332 15.1024 18.8332 10.5001C18.8332 5.89772 15.1022 2.16675 10.4998 2.16675ZM10.4998 3.32954C14.46 3.32954 17.6704 6.53991 17.6704 10.5001C17.6704 14.4603 14.46 17.6706 10.4998 17.6706C6.53966 17.6706 3.3293 14.4603 3.3293 10.5001C3.3293 6.53991 6.53966 3.32954 10.4998 3.32954ZM9.55938 7.2122L9.47267 7.20396C9.30846 7.19832 9.13906 7.23954 8.98973 7.3201C8.79644 7.42358 8.64041 7.59126 8.5539 7.79887C8.51414 7.89498 8.44538 8.19166 8.41445 8.36396C8.33679 8.78741 8.29162 9.43863 8.28397 10.1533L8.28281 10.3936C8.28199 11.1519 8.32386 11.8736 8.40122 12.3492L8.44363 12.5676C8.48586 12.7619 8.54195 12.9689 8.58691 13.0562C8.7584 13.3875 9.10726 13.5921 9.47802 13.5803C9.63614 13.5768 9.96832 13.4664 10.1993 13.3694C11.0312 13.0195 12.4962 12.0387 13.1732 11.3774L13.398 11.1434C13.484 11.0515 13.5227 11.0087 13.5555 10.964C13.6779 10.7976 13.7417 10.5966 13.7417 10.393C13.7417 10.1768 13.6705 9.96565 13.5346 9.7934L13.4682 9.7166L13.2819 9.51768C12.6427 8.83645 10.9702 7.71329 10.1159 7.38133C9.92796 7.30707 9.71605 7.23591 9.55938 7.2122ZM9.58817 8.42644L9.69164 8.46397C10.347 8.71862 11.7377 9.64161 12.331 10.2097L12.5076 10.3916L12.4407 10.4637C11.9459 10.9972 10.485 11.9878 9.74885 12.2974L9.58895 12.3559L9.54856 12.1602C9.4906 11.8039 9.45373 11.2398 9.44679 10.6259L9.4456 10.3937C9.44492 9.72406 9.47912 9.09924 9.53802 8.6971L9.56632 8.53139L9.58817 8.42644Z" fill="white"/>
</svg>
