<svg width="25" height="24" viewBox="0 0 25 24" fill="none" xmlns="http://www.w3.org/2000/svg">
<path d="M9.62974 20.7733V17.7156C9.62974 16.9351 10.2683 16.3023 11.0561 16.3023H13.9357C14.314 16.3023 14.6768 16.4512 14.9443 16.7163C15.2118 16.9813 15.362 17.3408 15.362 17.7156V20.7733C15.3596 21.0978 15.4881 21.4099 15.7188 21.6402C15.9496 21.8705 16.2635 22 16.591 22H18.5556C19.4732 22.0023 20.3539 21.6428 21.0036 21.0008C21.6532 20.3588 22.0183 19.487 22.0183 18.5778V9.86686C22.0183 9.13246 21.6898 8.43584 21.1212 7.96467L14.4381 2.67587C13.2755 1.74856 11.6098 1.7785 10.482 2.74698L3.95126 7.96467C3.35587 8.42195 3.00001 9.12064 2.98242 9.86686V18.5689C2.98242 20.4639 4.53273 22 6.44513 22H8.36486C9.04508 22 9.5979 21.4562 9.60282 20.7822L9.62974 20.7733Z" fill="#4838D1"/>
</svg>
