<svg width="24" height="24" viewBox="0 0 24 24" fill="none" xmlns="http://www.w3.org/2000/svg">
<path fill-rule="evenodd" clip-rule="evenodd" d="M20.339 7.65935C21.009 8.17835 21.42 8.94935 21.49 9.78835L21.5 9.98935V18.0984C21.5 20.1884 19.849 21.8884 17.78 21.9984H15.79C14.839 21.9794 14.07 21.2394 14 20.3094L13.99 20.1684V17.3094C13.99 16.9984 13.759 16.7394 13.45 16.6884L13.36 16.6784H10.689C10.37 16.6884 10.11 16.9184 10.07 17.2184L10.06 17.3094V20.1594C10.06 20.2184 10.049 20.2884 10.04 20.3384L10.03 20.3594L10.019 20.4284C9.9 21.2794 9.2 21.9284 8.33 21.9894L8.2 21.9984H6.41C4.32 21.9984 2.61 20.3594 2.5 18.2984V9.98935C2.509 9.13835 2.88 8.34835 3.5 7.79835L9.73 2.78835C11 1.77935 12.78 1.73935 14.089 2.66835L14.25 2.78835L20.339 7.65935ZM20.099 18.2584L20.11 18.0984V9.99835C20.099 9.56935 19.92 9.16835 19.61 8.86935L19.48 8.75836L13.38 3.87835C12.62 3.26835 11.54 3.23935 10.74 3.76835L10.589 3.87835L4.509 8.77936C4.16 9.03835 3.95 9.42835 3.9 9.83836L3.889 9.99835V18.0984C3.889 19.4284 4.929 20.5184 6.25 20.5984H8.2C8.42 20.5984 8.61 20.4494 8.639 20.2394L8.66 20.0594L8.67 20.0084V17.3094C8.67 16.2394 9.49 15.3694 10.54 15.2884H13.36C14.429 15.2884 15.299 16.1094 15.38 17.1594V20.1684C15.38 20.3784 15.53 20.5594 15.73 20.5984H17.589C18.929 20.5984 20.019 19.5694 20.099 18.2584Z" fill="#2E2E5D"/>
</svg>
