<svg width="24" height="24" viewBox="0 0 24 24" fill="none" xmlns="http://www.w3.org/2000/svg">
<path fill-rule="evenodd" clip-rule="evenodd" d="M2.87803 2.51099L2.77658 2.50038C2.4074 2.48688 2.07586 2.74796 2.01111 3.12209L2.0005 3.22354C1.987 3.59272 2.24808 3.92426 2.62222 3.98901L4.13122 4.25L5.04575 15.1457L5.06468 15.3095C5.24868 16.5519 6.31732 17.486 7.59012 17.486H18.5021L18.6665 17.4808C19.8628 17.4044 20.8547 16.4996 21.0293 15.2978L21.9784 8.73941L21.9948 8.58877C22.0821 7.38969 21.1322 6.349 19.9091 6.349H5.81222L5.57749 3.54727L5.5598 3.43641C5.49136 3.14809 5.25698 2.92273 4.95803 2.87099L2.87803 2.51099ZM7.47418 15.9797C6.97891 15.9255 6.58283 15.5277 6.54053 15.0207L5.93822 7.849H19.9091L19.9973 7.85548C20.313 7.90242 20.5411 8.19769 20.4938 8.52465L19.5449 15.0826L19.521 15.1998C19.4007 15.6584 18.9853 15.986 18.5021 15.986H7.59012L7.47418 15.9797ZM5.90852 20.5853C5.90852 19.7492 6.5862 19.0703 7.42252 19.0703C8.25874 19.0703 8.93752 19.7491 8.93752 20.5853C8.93752 21.4216 8.25862 22.0993 7.42252 22.0993C6.58631 22.0993 5.90852 21.4215 5.90852 20.5853ZM17.1599 20.5853C17.1599 19.7491 17.8387 19.0703 18.6749 19.0703C19.5111 19.0703 20.1899 19.7491 20.1899 20.5853C20.1899 21.4216 19.511 22.0993 18.6749 22.0993C17.8388 22.0993 17.1599 21.4216 17.1599 20.5853ZM17.6486 10.795C17.6486 10.3808 17.3128 10.045 16.8986 10.045H14.1256L14.0239 10.0518C13.6578 10.1015 13.3756 10.4153 13.3756 10.795C13.3756 11.2092 13.7114 11.545 14.1256 11.545H16.8986L17.0004 11.5382C17.3665 11.4885 17.6486 11.1747 17.6486 10.795Z" fill="#2E2E5D"/>
</svg>
