<svg width="25" height="24" viewBox="0 0 25 24" fill="none" xmlns="http://www.w3.org/2000/svg">
<path fill-rule="evenodd" clip-rule="evenodd" d="M8.63062 22C8.21785 22 7.82611 21.968 7.45741 21.905L7.239 21.864C4.86352 21.371 3.48291 19.555 3.48291 16.791V7.209C3.48291 6.875 3.50295 6.555 3.54302 6.249C3.89268 3.564 5.74117 2 8.63062 2H16.3702C19.5723 2 21.4869 3.92 21.5169 7.132V7.209V16.791C21.5169 20.048 19.5973 22 16.3702 22H8.63062ZM8.63062 3.457C6.16998 3.457 4.92263 4.72 4.92263 7.209V16.791C4.92263 19.28 6.16998 20.543 8.63062 20.543H16.3612C18.8209 20.543 20.0602 19.28 20.0602 16.791V7.209C20.0602 4.72 18.8209 3.457 16.3612 3.457H8.63062ZM16.8141 16.234C16.8141 15.834 16.4945 15.51 16.0997 15.51H8.87509C8.48034 15.51 8.15974 15.834 8.15974 16.234C8.15974 16.634 8.48034 16.958 8.87509 16.958H16.0997C16.4945 16.958 16.8141 16.634 16.8141 16.234ZM16.0997 11.271C16.3752 11.241 16.6447 11.373 16.792 11.61C16.9393 11.849 16.9393 12.151 16.792 12.39C16.6447 12.627 16.3752 12.759 16.0997 12.729H8.87509C8.50839 12.687 8.23087 12.374 8.23087 12C8.23087 11.626 8.50839 11.312 8.87509 11.271H16.0997ZM12.2765 7.771C12.2765 7.397 11.999 7.083 11.6323 7.042H8.8841C8.51641 7.083 8.23889 7.397 8.23889 7.771C8.23889 8.144 8.51641 8.458 8.8841 8.499H11.6323C11.999 8.458 12.2765 8.144 12.2765 7.771Z" fill="#6A6A8B"/>
</svg>
