<svg width="19" height="20" viewBox="0 0 19 20" fill="none" xmlns="http://www.w3.org/2000/svg">
<path fill-rule="evenodd" clip-rule="evenodd" d="M5.30249 0H13.6993C16.7942 0 18.5174 1.78 18.5174 4.83V15.16C18.5174 18.26 16.7942 20 13.6993 20H5.30249C2.25675 20 0.483398 18.26 0.483398 15.16V4.83C0.483398 1.78 2.25675 0 5.30249 0ZM5.573 4.66V4.65H8.56766C8.99947 4.65 9.35013 5 9.35013 5.429C9.35013 5.87 8.99947 6.22 8.56766 6.22H5.573C5.14119 6.22 4.79153 5.87 4.79153 5.44C4.79153 5.01 5.14119 4.66 5.573 4.66ZM5.573 10.74H13.4278C13.8586 10.74 14.2093 10.39 14.2093 9.96C14.2093 9.53 13.8586 9.179 13.4278 9.179H5.573C5.14119 9.179 4.79153 9.53 4.79153 9.96C4.79153 10.39 5.14119 10.74 5.573 10.74ZM5.573 15.31H13.4278C13.8276 15.27 14.1292 14.929 14.1292 14.53C14.1292 14.12 13.8276 13.78 13.4278 13.74H5.573C5.27244 13.71 4.98189 13.85 4.82159 14.11C4.66128 14.36 4.66128 14.69 4.82159 14.95C4.98189 15.2 5.27244 15.35 5.573 15.31Z" fill="#4838D1"/>
</svg>
