<svg width="21" height="20" viewBox="0 0 21 20" fill="none" xmlns="http://www.w3.org/2000/svg">
<path fill-rule="evenodd" clip-rule="evenodd" d="M0.481445 8.66993C0.481445 3.88166 4.32905 0 9.0753 0C11.3545 0 13.5404 0.913436 15.1521 2.53936C16.7637 4.16529 17.6692 6.37052 17.6692 8.66993C17.6692 13.4582 13.8216 17.3399 9.0753 17.3399C4.32905 17.3399 0.481445 13.4582 0.481445 8.66993ZM17.527 15.6543L20.0865 17.7164H20.1309C20.6487 18.2388 20.6487 19.0858 20.1309 19.6082C19.6131 20.1306 18.7735 20.1306 18.2557 19.6082L16.1317 17.1785C15.9309 16.9766 15.818 16.7024 15.818 16.4164C15.818 16.1304 15.9309 15.8562 16.1317 15.6543C16.5189 15.2704 17.1397 15.2704 17.527 15.6543Z" fill="#4838D1"/>
</svg>
