<svg width="24" height="24" viewBox="0 0 24 24" fill="none" xmlns="http://www.w3.org/2000/svg">
<path fill-rule="evenodd" clip-rule="evenodd" d="M14.607 2.01194C14.5639 2.00426 14.5196 2.00024 14.4743 2.00024C14.429 2.00024 14.3847 2.00426 14.3416 2.01194H8.084C5.5967 2.01194 3.5 4.02977 3.5 6.49094V17.2039C3.5 19.8045 5.5046 21.8649 8.084 21.8649H16.073C18.5263 21.8649 20.552 19.703 20.552 17.2039V8.03794C20.552 7.84433 20.4771 7.65821 20.343 7.51854L15.278 2.24254C15.1366 2.09522 14.9412 2.01194 14.737 2.01194H14.607ZM13.7243 3.51114L8.084 3.51194C6.41254 3.51194 5 4.87134 5 6.49094V17.2039C5 18.9852 6.34239 20.3649 8.084 20.3649H16.073C17.6753 20.3649 19.052 18.8956 19.052 17.2039L19.0513 8.98333L18.1759 8.98631C17.8422 8.98591 17.4627 8.9852 17.0407 8.98424C15.2712 8.9805 13.827 7.59353 13.7295 5.84763L13.7243 5.65924V3.51114ZM18.2305 7.48408L17.044 7.48425C16.0385 7.48212 15.2243 6.6657 15.2243 5.65924V4.35269L18.2305 7.48408ZM14.2843 14.8078C14.6985 14.8078 15.0343 15.1436 15.0343 15.5578C15.0343 15.9375 14.7521 16.2513 14.3861 16.301L14.2843 16.3078H8.8873C8.47309 16.3078 8.1373 15.9721 8.1373 15.5578C8.1373 15.1781 8.41945 14.8644 8.78553 14.8147L8.8873 14.8078H14.2843ZM12.9928 10.6056C12.9928 10.1914 12.657 9.85564 12.2428 9.85564H8.8868L8.78503 9.86249C8.41895 9.91215 8.1368 10.2259 8.1368 10.6056C8.1368 11.0199 8.47259 11.3556 8.8868 11.3556H12.2428L12.3446 11.3488C12.7106 11.2991 12.9928 10.9853 12.9928 10.6056Z" fill="#2E2E5D"/>
</svg>
